<?xml version="1.0" standalone="no"?>
<!DOCTYPE svg PUBLIC "-//W3C//DTD SVG 20010904//EN"
 "http://www.w3.org/TR/2001/REC-SVG-20010904/DTD/svg10.dtd">
<svg version="1.0" xmlns="http://www.w3.org/2000/svg"
 width="217.000000pt" height="217.000000pt" viewBox="0 0 217.000000 217.000000"
 preserveAspectRatio="xMidYMid meet">
<metadata>
Created by potrace 1.11, written by Peter Selinger 2001-2013
</metadata>
<g transform="translate(0.000000,217.000000) scale(0.100000,-0.100000)"
fill="#000000" stroke="none">
<path d="M1736 1428 c-27 -26 -46 -51 -43 -54 3 -4 0 -21 -7 -38 -8 -17 -59
-136 -114 -265 -113 -262 -136 -302 -189 -330 l-38 -20 118 -1 c76 0 116 4
112 10 -3 6 -16 10 -29 10 -26 0 -58 31 -54 50 2 7 19 56 39 109 l36 96 44 5
c24 3 87 4 140 2 l95 -3 37 -107 c31 -93 34 -110 23 -127 -7 -11 -22 -22 -32
-23 -11 -2 -23 -8 -29 -13 -5 -5 54 -9 149 -9 102 0 155 3 151 10 -3 6 -14 10
-24 10 -9 0 -27 9 -39 20 -39 37 -52 67 -218 518 -35 96 -67 179 -72 186 -5 9
-21 -1 -56 -36z m38 -250 c31 -78 54 -143 52 -145 -4 -4 -192 -7 -233 -4 -10
1 -9 9 1 34 32 73 54 126 82 194 16 39 32 69 35 67 4 -2 33 -68 63 -146z"/>
<path d="M70 1459 c-38 -7 -38 -8 0 -15 14 -3 34 -14 45 -25 19 -19 20 -33 20
-312 0 -161 -3 -304 -7 -318 -6 -19 -21 -32 -55 -47 l-48 -20 174 -1 c96 -1
171 2 167 7 -8 7 -13 8 -40 11 -8 0 -27 11 -42 24 -26 23 -26 26 -30 166 l-5
142 37 -5 c20 -4 49 -15 64 -26 33 -24 107 -115 174 -217 71 -107 66 -104 187
-101 l104 3 -46 21 c-60 28 -85 54 -173 182 -41 59 -83 116 -94 126 -20 18
-20 18 31 45 72 38 110 94 110 163 0 89 -48 155 -133 183 -48 16 -370 26 -440
14z m357 -40 c52 -25 81 -63 92 -122 21 -116 -66 -202 -214 -209 l-50 -3 1
174 c1 123 5 175 13 180 21 13 114 1 158 -20z"/>
<path d="M926 1279 c-15 -12 -31 -32 -36 -44 -11 -30 4 -87 30 -110 11 -10 20
-21 20 -25 0 -4 -19 -20 -42 -36 -43 -30 -80 -94 -71 -123 23 -74 44 -95 102
-104 44 -7 88 7 133 44 l39 31 35 -36 c43 -44 88 -54 138 -31 34 16 84 71 74
81 -3 2 -15 -7 -28 -21 -37 -40 -77 -34 -129 19 l-44 45 49 61 c50 61 111 110
139 110 8 0 15 4 15 8 0 7 -28 7 -185 2 l-40 -2 40 -12 c33 -10 40 -16 39 -37
-1 -40 -74 -138 -74 -100 0 6 -25 37 -56 70 -44 48 -53 62 -40 67 28 11 58 71
51 103 -13 59 -105 82 -159 40z m109 -53 c7 -35 -8 -86 -25 -86 -25 0 -71 66
-65 95 2 11 4 24 4 28 1 4 11 12 24 16 29 11 55 -11 62 -53z m-18 -199 c72
-76 80 -93 51 -117 -13 -11 -30 -20 -38 -20 -8 -1 -24 -3 -35 -6 -80 -16 -127
96 -69 165 14 17 29 31 33 31 5 0 31 -24 58 -53z"/>
</g>
</svg>
